<?xml version="1.0" encoding="utf-8"?>
<svg xmlns="http://www.w3.org/2000/svg" xmlns:xlink="http://www.w3.org/1999/xlink" style="margin: auto; background: none; display: block; shape-rendering: auto;" width="204px" height="204px" viewBox="0 0 100 100" preserveAspectRatio="xMidYMid">
<g transform="rotate(0 50 50)">
  <rect x="47.5" y="25.5" rx="2.5" ry="4.5" width="5" height="9" fill="#cccccc">
    <animate attributeName="opacity" values="1;0" keyTimes="0;1" dur="0.9615384615384615s" begin="-0.9178321678321677s" repeatCount="indefinite"></animate>
  </rect>
</g><g transform="rotate(16.363636363636363 50 50)">
  <rect x="47.5" y="25.5" rx="2.5" ry="4.5" width="5" height="9" fill="#2a2929">
    <animate attributeName="opacity" values="1;0" keyTimes="0;1" dur="0.9615384615384615s" begin="-0.8741258741258741s" repeatCount="indefinite"></animate>
  </rect>
</g><g transform="rotate(32.72727272727273 50 50)">
  <rect x="47.5" y="25.5" rx="2.5" ry="4.5" width="5" height="9" fill="#cccccc">
    <animate attributeName="opacity" values="1;0" keyTimes="0;1" dur="0.9615384615384615s" begin="-0.8304195804195803s" repeatCount="indefinite"></animate>
  </rect>
</g><g transform="rotate(49.09090909090909 50 50)">
  <rect x="47.5" y="25.5" rx="2.5" ry="4.5" width="5" height="9" fill="#2a2929">
    <animate attributeName="opacity" values="1;0" keyTimes="0;1" dur="0.9615384615384615s" begin="-0.7867132867132867s" repeatCount="indefinite"></animate>
  </rect>
</g><g transform="rotate(65.45454545454545 50 50)">
  <rect x="47.5" y="25.5" rx="2.5" ry="4.5" width="5" height="9" fill="#cccccc">
    <animate attributeName="opacity" values="1;0" keyTimes="0;1" dur="0.9615384615384615s" begin="-0.7430069930069929s" repeatCount="indefinite"></animate>
  </rect>
</g><g transform="rotate(81.81818181818181 50 50)">
  <rect x="47.5" y="25.5" rx="2.5" ry="4.5" width="5" height="9" fill="#2a2929">
    <animate attributeName="opacity" values="1;0" keyTimes="0;1" dur="0.9615384615384615s" begin="-0.6993006993006993s" repeatCount="indefinite"></animate>
  </rect>
</g><g transform="rotate(98.18181818181819 50 50)">
  <rect x="47.5" y="25.5" rx="2.5" ry="4.5" width="5" height="9" fill="#cccccc">
    <animate attributeName="opacity" values="1;0" keyTimes="0;1" dur="0.9615384615384615s" begin="-0.6555944055944055s" repeatCount="indefinite"></animate>
  </rect>
</g><g transform="rotate(114.54545454545455 50 50)">
  <rect x="47.5" y="25.5" rx="2.5" ry="4.5" width="5" height="9" fill="#2a2929">
    <animate attributeName="opacity" values="1;0" keyTimes="0;1" dur="0.9615384615384615s" begin="-0.6118881118881119s" repeatCount="indefinite"></animate>
  </rect>
</g><g transform="rotate(130.9090909090909 50 50)">
  <rect x="47.5" y="25.5" rx="2.5" ry="4.5" width="5" height="9" fill="#cccccc">
    <animate attributeName="opacity" values="1;0" keyTimes="0;1" dur="0.9615384615384615s" begin="-0.5681818181818181s" repeatCount="indefinite"></animate>
  </rect>
</g><g transform="rotate(147.27272727272728 50 50)">
  <rect x="47.5" y="25.5" rx="2.5" ry="4.5" width="5" height="9" fill="#2a2929">
    <animate attributeName="opacity" values="1;0" keyTimes="0;1" dur="0.9615384615384615s" begin="-0.5244755244755244s" repeatCount="indefinite"></animate>
  </rect>
</g><g transform="rotate(163.63636363636363 50 50)">
  <rect x="47.5" y="25.5" rx="2.5" ry="4.5" width="5" height="9" fill="#cccccc">
    <animate attributeName="opacity" values="1;0" keyTimes="0;1" dur="0.9615384615384615s" begin="-0.4807692307692307s" repeatCount="indefinite"></animate>
  </rect>
</g><g transform="rotate(180 50 50)">
  <rect x="47.5" y="25.5" rx="2.5" ry="4.5" width="5" height="9" fill="#2a2929">
    <animate attributeName="opacity" values="1;0" keyTimes="0;1" dur="0.9615384615384615s" begin="-0.43706293706293703s" repeatCount="indefinite"></animate>
  </rect>
</g><g transform="rotate(196.36363636363637 50 50)">
  <rect x="47.5" y="25.5" rx="2.5" ry="4.5" width="5" height="9" fill="#cccccc">
    <animate attributeName="opacity" values="1;0" keyTimes="0;1" dur="0.9615384615384615s" begin="-0.39335664335664333s" repeatCount="indefinite"></animate>
  </rect>
</g><g transform="rotate(212.72727272727272 50 50)">
  <rect x="47.5" y="25.5" rx="2.5" ry="4.5" width="5" height="9" fill="#2a2929">
    <animate attributeName="opacity" values="1;0" keyTimes="0;1" dur="0.9615384615384615s" begin="-0.34965034965034963s" repeatCount="indefinite"></animate>
  </rect>
</g><g transform="rotate(229.0909090909091 50 50)">
  <rect x="47.5" y="25.5" rx="2.5" ry="4.5" width="5" height="9" fill="#cccccc">
    <animate attributeName="opacity" values="1;0" keyTimes="0;1" dur="0.9615384615384615s" begin="-0.30594405594405594s" repeatCount="indefinite"></animate>
  </rect>
</g><g transform="rotate(245.45454545454547 50 50)">
  <rect x="47.5" y="25.5" rx="2.5" ry="4.5" width="5" height="9" fill="#2a2929">
    <animate attributeName="opacity" values="1;0" keyTimes="0;1" dur="0.9615384615384615s" begin="-0.2622377622377622s" repeatCount="indefinite"></animate>
  </rect>
</g><g transform="rotate(261.8181818181818 50 50)">
  <rect x="47.5" y="25.5" rx="2.5" ry="4.5" width="5" height="9" fill="#cccccc">
    <animate attributeName="opacity" values="1;0" keyTimes="0;1" dur="0.9615384615384615s" begin="-0.21853146853146851s" repeatCount="indefinite"></animate>
  </rect>
</g><g transform="rotate(278.1818181818182 50 50)">
  <rect x="47.5" y="25.5" rx="2.5" ry="4.5" width="5" height="9" fill="#2a2929">
    <animate attributeName="opacity" values="1;0" keyTimes="0;1" dur="0.9615384615384615s" begin="-0.17482517482517482s" repeatCount="indefinite"></animate>
  </rect>
</g><g transform="rotate(294.54545454545456 50 50)">
  <rect x="47.5" y="25.5" rx="2.5" ry="4.5" width="5" height="9" fill="#cccccc">
    <animate attributeName="opacity" values="1;0" keyTimes="0;1" dur="0.9615384615384615s" begin="-0.1311188811188811s" repeatCount="indefinite"></animate>
  </rect>
</g><g transform="rotate(310.90909090909093 50 50)">
  <rect x="47.5" y="25.5" rx="2.5" ry="4.5" width="5" height="9" fill="#2a2929">
    <animate attributeName="opacity" values="1;0" keyTimes="0;1" dur="0.9615384615384615s" begin="-0.08741258741258741s" repeatCount="indefinite"></animate>
  </rect>
</g><g transform="rotate(327.27272727272725 50 50)">
  <rect x="47.5" y="25.5" rx="2.5" ry="4.5" width="5" height="9" fill="#cccccc">
    <animate attributeName="opacity" values="1;0" keyTimes="0;1" dur="0.9615384615384615s" begin="-0.043706293706293704s" repeatCount="indefinite"></animate>
  </rect>
</g><g transform="rotate(343.6363636363636 50 50)">
  <rect x="47.5" y="25.5" rx="2.5" ry="4.5" width="5" height="9" fill="#2a2929">
    <animate attributeName="opacity" values="1;0" keyTimes="0;1" dur="0.9615384615384615s" begin="0s" repeatCount="indefinite"></animate>
  </rect>
</g>
<!-- [ldio] generated by https://loading.io/ --></svg>