<svg viewBox="0 0 512 512" xml:space="preserve" xmlns="http://www.w3.org/2000/svg"><g fill="none"><circle cx="256" cy="256" r="256"/><path d="M256 469.334c-117.63 0-213.333-95.702-213.333-213.333S138.369 42.667 256 42.667c117.636 0 213.333 95.703 213.333 213.334S373.636 469.334 256 469.334z"/></g><circle cx="303.489" cy="345.341" opacity=".3" r="23.017"/><circle cx="217.721" cy="345.341" opacity=".3" r="23.018"/><path opacity=".3" d="M342.45 199.901 314.848 172.3l-27.603 27.602zM262.073 199.901c-2.33-13.825-14.312-24.372-28.8-24.372-14.487 0-26.461 10.549-28.792 24.372h57.592z"/><path opacity=".3" d="M180.246 210.055v-10.154h.049v-27.998l-32.872-12.261-3.423 9.175 26.503 9.884v124.04h179.962L384 210.055z"/><g fill="#FFF"><circle cx="295.489" cy="337.341" r="23.017"/><circle cx="209.721" cy="337.341" r="23.018"/><path d="M334.45 191.901 306.848 164.3l-27.603 27.602zM254.073 191.901c-2.33-13.825-14.312-24.372-28.8-24.372-14.487 0-26.461 10.549-28.792 24.372h57.592z"/><path d="M172.246 202.055v-10.154h.049v-27.998l-32.872-12.261-3.423 9.175 26.503 9.884v124.04h179.962L376 202.055z"/></g></svg>